<?xml version="1.0" encoding="iso-8859-1"?>
<!-- Generator: Adobe Illustrator 19.0.0, SVG Export Plug-In . SVG Version: 6.00 Build 0)  -->
<svg version="1.1" id="Capa_1" xmlns="http://www.w3.org/2000/svg" xmlns:xlink="http://www.w3.org/1999/xlink" x="0px" y="0px"
	 viewBox="0 0 512 512" style="enable-background:new 0 0 512 512;" xml:space="preserve">
<path style="fill:#F8B64C;" d="M331.733,335.591c0,20.267,4.267,40.533,12.8,60.8c-58.667,12.8-117.333,12.8-176,0
	c17.067-43.733,17.067-88.533,0-132.267c58.667-12.8,117.333-12.8,176,0c-1.067,3.2-2.133,5.333-3.2,8.533l0,0
	C333.867,293.991,330.667,314.258,331.733,335.591L331.733,335.591z"/>
<path style="fill:#F2F2F2;" d="M331.733,335.591L331.733,335.591L256,396.391l-75.733-60.8l0,0l-82.133,32
	C39.467,391.058,0,447.591,0,511.591l0,0h256h256l0,0c0-64-39.467-120.533-98.133-144L331.733,335.591z"/>
<g>
	<polygon style="fill:#40596B;" points="290.133,430.525 256,396.391 221.867,430.525 237.867,446.525 231.467,511.591 
		280.533,511.591 274.133,446.525 	"/>
	<path style="opacity:0.1;fill:#40596B;enable-background:new    ;" d="M341.333,272.658c-6.4,20.267-10.667,41.6-9.6,61.867l0,0
		L278.4,378.258l-61.867-45.867l33.067-41.6L341.333,272.658z"/>
</g>
<g>
	
		<ellipse transform="matrix(-0.0872 -0.9962 0.9962 -0.0872 -29.3979 362.7254)" style="fill:#F8B64C;" cx="151.489" cy="194.832" rx="35.2" ry="23.467"/>
	
		<ellipse transform="matrix(0.0872 -0.9962 0.9962 0.0872 134.9976 537.0026)" style="fill:#F8B64C;" cx="360.518" cy="194.839" rx="35.2" ry="23.467"/>
</g>
<path style="fill:#FFD15C;" d="M366.933,142.525v36.267c0,7.467,0,14.933-1.067,22.4c-2.133,12.8-4.267,24.533-8.533,37.333
	c-8.533,28.8-24.533,55.467-44.8,77.867l-10.667,11.733c-9.6,10.667-23.467,16-37.333,16h-16c-13.867,0-27.733-6.4-37.333-16
	l-10.667-11.733c-14.933-16-26.667-34.133-35.2-53.333c-8.533-19.2-14.933-40.533-17.067-61.867
	c-1.067-7.467-1.067-14.933-1.067-22.4c0-1.067,0-1.067,0-2.133v-33.067c0-10.667,1.067-20.267,4.267-29.867
	c12.8-45.867,55.467-80,106.667-80c50.133,0,92.8,34.133,105.6,80C364.8,122.258,366.933,131.858,366.933,142.525z"/>
<g>
	<polygon style="fill:#CDD6E0;" points="256,396.391 331.733,335.591 336,336.658 301.867,442.258 	"/>
	<polygon style="fill:#CDD6E0;" points="256,396.391 180.267,335.591 176,336.658 210.133,442.258 	"/>
</g>
<g>
	<path style="fill:#ACB3BA;" d="M354.133,323.858C354.133,324.925,354.133,324.925,354.133,323.858L354.133,323.858L354.133,323.858
		z"/>
	<path style="fill:#ACB3BA;" d="M355.2,323.858L355.2,323.858C355.2,324.925,355.2,324.925,355.2,323.858L355.2,323.858z"/>
</g>
<path style="fill:#40596B;" d="M364.8,205.458c3.2-35.2-3.2-57.6-7.467-70.4c-3.2-7.467-3.2-14.933-2.133-22.4
	c3.2-33.067-13.867-27.733-13.867-27.733C304,103.058,256,103.058,256,103.058s-48,0-85.333-18.133c0,0-17.067-4.267-12.8,28.8
	c1.067,7.467,0,14.933-2.133,22.4c-5.333,11.733-11.733,35.2-7.467,70.4c0,0-73.6-213.333,108.8-205.867
	C437.333-7.875,364.8,205.458,364.8,205.458z"/>
<circle style="fill:#CDD6E0;" cx="380.8" cy="431.591" r="24.533"/>
<circle style="fill:#F2F2F2;" cx="380.8" cy="431.591" r="14.933"/>
<g>
	<path style="fill:#D7D8DB;" d="M390.4,410.258l-12.8-2.133c0,0,6.4-33.067-9.6-53.333c-7.467-9.6-20.267-14.933-37.333-14.933
		v-12.8c20.267,0,36.267,6.4,46.933,19.2C397.867,370.791,391.467,408.125,390.4,410.258z"/>
	<path style="fill:#D7D8DB;" d="M180.267,324.925c-16,2.133-27.733,8.533-37.333,19.2c-20.267,24.533-12.8,61.867-11.733,62.933
		l12.8-2.133c0,0-6.4-33.067,9.6-52.267c6.4-7.467,14.933-12.8,26.667-13.867C181.333,337.725,181.333,324.925,180.267,324.925z"/>
	<path style="fill:#D7D8DB;" d="M107.733,498.791l-2.133-3.2c-8.533-12.8-12.8-26.667-14.933-40.533
		c-3.2-29.867,17.067-57.6,46.933-60.8c30.933-4.267,57.6,17.067,61.867,46.933c2.133,13.867,0,28.8-4.267,43.733l-1.067,4.267
		l-17.067,2.133l-2.133-12.8l8.533-1.067c3.2-11.733,4.267-23.467,2.133-34.133c-3.2-22.4-23.467-39.467-46.933-36.267
		c-23.467,3.2-39.467,24.533-37.333,46.933c1.067,10.667,5.333,21.333,10.667,32l8.533-1.067l2.133,12.8L107.733,498.791z"/>
</g>
<g>
	<path style="fill:#ACB3BA;" d="M140.8,488.125c1.067,7.467-4.267,14.933-11.733,16c-7.467,1.067-10.667-26.667-3.2-27.733
		C133.333,475.325,139.733,480.658,140.8,488.125z"/>
	<path style="fill:#ACB3BA;" d="M158.933,485.991c1.067,7.467,7.467,12.8,16,11.733c7.467-1.067,4.267-28.8-3.2-27.733
		C164.267,471.058,157.867,477.458,158.933,485.991z"/>
</g>
<path style="fill:#FF7058;" d="M331.733,160.658h-49.067c-10.667,0-19.2,8.533-19.2,19.2v1.067c-2.133,0-5.333,0-7.467,0
	c-2.133,0-5.333,0-7.467,1.067l0,0c0-10.667-8.533-20.267-20.267-20.267h-46.933c-10.667,0-20.267,8.533-20.267,20.267v10.667
	c0,10.667,8.533,20.267,20.267,20.267h48c10.667,0,20.267-8.533,20.267-20.267v2.133c4.267-1.067,9.6-1.067,13.867,0v-3.2
	c0,10.667,8.533,19.2,19.2,19.2h49.067c10.667,0,19.2-8.533,19.2-19.2v-11.733C350.933,169.191,342.4,160.658,331.733,160.658z
	 M237.867,191.591c0,5.333-4.267,9.6-9.6,9.6h-46.933c-5.333,0-9.6-4.267-9.6-9.6v-10.667c0-5.333,4.267-9.6,9.6-9.6h48
	c5.333,0,9.6,4.267,9.6,9.6v10.667H237.867z M340.267,191.591c0,5.333-4.267,8.533-8.533,8.533h-49.067
	c-5.333,0-8.533-4.267-8.533-8.533v-11.733c0-5.333,4.267-8.533,8.533-8.533h49.067c5.333,0,8.533,4.267,8.533,8.533V191.591z"/>
<g>
</g>
<g>
</g>
<g>
</g>
<g>
</g>
<g>
</g>
<g>
</g>
<g>
</g>
<g>
</g>
<g>
</g>
<g>
</g>
<g>
</g>
<g>
</g>
<g>
</g>
<g>
</g>
<g>
</g>
</svg>
